<svg width="28" height="25" viewBox="0 0 28 25" fill="none" xmlns="http://www.w3.org/2000/svg">
<path d="M14.2263 24.5C6.63357 24.5 0.476318 19.0144 0.476318 12.25C0.476318 5.48555 6.63357 0 14.2263 0C21.8191 0 27.9763 5.48555 27.9763 12.25C27.9763 19.0144 21.8191 24.5 14.2263 24.5Z" fill="url(#paint0_linear_141_8)"/>
<path d="M14.2263 5.39493C16.7316 5.39493 17.0286 5.40228 18.0186 5.44393C18.9343 5.48068 19.4321 5.61788 19.7621 5.73303C20.1993 5.88493 20.5128 6.06623 20.8401 6.35778C21.1673 6.64933 21.3708 6.92863 21.5413 7.31818C21.6706 7.61218 21.8218 8.05563 21.8658 8.87148C21.9098 9.75348 21.9208 10.0181 21.9208 12.25C21.9208 14.482 21.9126 14.7466 21.8658 15.6286C21.8246 16.4444 21.6706 16.8879 21.5413 17.1819C21.3708 17.5714 21.1673 17.8507 20.8401 18.1423C20.5128 18.4338 20.1993 18.6151 19.7621 18.767C19.4321 18.8822 18.9343 19.0169 18.0186 19.0561C17.0286 19.0953 16.7316 19.1051 14.2263 19.1051C11.7211 19.1051 11.4241 19.0978 10.4341 19.0561C9.51833 19.0194 9.02058 18.8822 8.69058 18.767C8.25333 18.6151 7.93983 18.4338 7.61258 18.1423C7.28533 17.8507 7.08183 17.5714 6.91133 17.1819C6.78208 16.8879 6.63083 16.4444 6.58683 15.6286C6.54283 14.7466 6.53183 14.482 6.53183 12.25C6.53183 10.0181 6.54008 9.75348 6.58683 8.87148C6.62808 8.05563 6.78208 7.61218 6.91133 7.31818C7.08183 6.92863 7.28533 6.64933 7.61258 6.35778C7.93983 6.06623 8.25333 5.88493 8.69058 5.73303C9.02058 5.61788 9.51833 5.48313 10.4341 5.44393C11.4241 5.40228 11.7211 5.39493 14.2263 5.39493ZM14.2263 3.88818C11.6771 3.88818 11.3581 3.89798 10.3571 3.93963C9.35883 3.98128 8.67683 4.12093 8.07733 4.32918C7.46133 4.53988 6.93608 4.82653 6.41633 5.29203C5.89383 5.75753 5.57483 6.22303 5.33283 6.77428C5.10183 7.30593 4.94233 7.91353 4.89558 8.80533C4.84883 9.69713 4.83783 9.98134 4.83783 12.2525C4.83783 14.5236 4.84883 14.8078 4.89558 15.6996C4.94233 16.589 5.09908 17.1966 5.33283 17.7307C5.57208 18.277 5.89383 18.745 6.41633 19.208C6.93883 19.6735 7.46133 19.9577 8.08008 20.1733C8.67683 20.3791 9.35883 20.5212 10.3598 20.5629C11.3608 20.6045 11.6798 20.6143 14.2291 20.6143C16.7783 20.6143 17.0973 20.6045 18.0983 20.5629C19.0966 20.5212 19.7786 20.3816 20.3781 20.1733C20.9913 19.9602 21.5166 19.6735 22.0363 19.208C22.5588 18.7425 22.8778 18.277 23.1198 17.7258C23.3508 17.1941 23.5103 16.5865 23.5571 15.6947C23.6038 14.8029 23.6148 14.5187 23.6148 12.2476C23.6148 9.97643 23.6038 9.69223 23.5571 8.80043C23.5103 7.91108 23.3536 7.30348 23.1198 6.76938C22.8806 6.22303 22.5588 5.75508 22.0363 5.29203C21.5138 4.82653 20.9913 4.54233 20.3726 4.32673C19.7758 4.12093 19.0938 3.97883 18.0928 3.93718C17.0946 3.89798 16.7756 3.88818 14.2263 3.88818Z" fill="white"/>
<path d="M14.2263 7.95508C11.5643 7.95508 9.40558 9.87833 9.40558 12.2499C9.40558 14.6215 11.5643 16.5448 14.2263 16.5448C16.8883 16.5448 19.0471 14.6215 19.0471 12.2499C19.0471 9.87833 16.8883 7.95508 14.2263 7.95508ZM14.2263 15.038C12.4993 15.038 11.0968 13.791 11.0968 12.2499C11.0968 10.7089 12.4993 9.46183 14.2263 9.46183C15.9533 9.46183 17.3558 10.7089 17.3558 12.2499C17.3558 13.791 15.9533 15.038 14.2263 15.038Z" fill="white"/>
<path d="M19.2368 8.7905C19.8595 8.7905 20.3643 8.34077 20.3643 7.786C20.3643 7.23122 19.8595 6.78149 19.2368 6.78149C18.6141 6.78149 18.1093 7.23122 18.1093 7.786C18.1093 8.34077 18.6141 8.7905 19.2368 8.7905Z" fill="white"/>
<defs>
<linearGradient id="paint0_linear_141_8" x1="4.5036" y1="20.9121" x2="21.7128" y2="1.59563" gradientUnits="userSpaceOnUse">
<stop stop-color="#FFD521"/>
<stop offset="0.0551048" stop-color="#FFD020"/>
<stop offset="0.1241" stop-color="#FEC01E"/>
<stop offset="0.2004" stop-color="#FCA71B"/>
<stop offset="0.2821" stop-color="#FA8316"/>
<stop offset="0.3681" stop-color="#F85510"/>
<stop offset="0.4563" stop-color="#F51E09"/>
<stop offset="0.5" stop-color="#F30005"/>
<stop offset="0.5035" stop-color="#F20007"/>
<stop offset="0.5966" stop-color="#E1003B"/>
<stop offset="0.6879" stop-color="#D30067"/>
<stop offset="0.7757" stop-color="#C70088"/>
<stop offset="0.8589" stop-color="#BF00A0"/>
<stop offset="0.9357" stop-color="#BB00AF"/>
<stop offset="1" stop-color="#B900B4"/>
</linearGradient>
</defs>
</svg>
