<svg width="71" height="57" viewBox="0 0 71 57" fill="none" xmlns="http://www.w3.org/2000/svg">
<path d="M46.6286 28.8187C46.5566 28.6784 46.8069 28.6363 47.4494 28.118C48.0918 27.5993 50.1796 25.5109 51.8216 23.8846C53.4636 22.2588 53.2493 21.2354 53.1601 20.2541C53.071 19.2728 52.3737 18.7962 51.6427 18.5861C50.9117 18.3757 47.502 18.4879 46.9133 18.516C46.324 18.544 46.0383 18.7821 45.7171 19.175C45.3959 19.5665 43.3612 22.0207 42.5582 22.7766C41.7552 23.5334 40.1132 24.7532 39.9703 24.7111C39.8274 24.669 39.8634 21.487 39.7377 20.7583C39.6131 20.0304 37.8465 19.3421 36.7045 19.2868C35.5626 19.2316 30.7623 19.385 30.1902 19.4832C29.6181 19.5815 29.2443 20.016 29.3152 20.1839C29.3872 20.3527 30.3685 21.1091 30.6365 21.4037C30.9046 21.6984 31.207 24.4173 31.1903 25.553C31.1737 26.6886 30.6005 27.1648 30.4039 27.1227C30.2079 27.0811 29.2974 26.8009 28.191 25.8055C27.0845 24.8102 24.1925 20.158 24.0685 20.0033C23.9439 19.8489 23.4094 19.7928 21.7846 19.7511C20.1597 19.7095 18.5238 19.8599 18.2514 20.2282C17.4301 21.3358 17.8404 23.5926 18.2514 24.6155C18.6623 25.6385 19.4465 27.3209 21.0348 29.2554C22.6231 31.19 25.0144 33.2223 27.3171 34.9884C29.6198 36.7546 31.3504 37.3299 32.35 37.582C33.3496 37.8341 35.1522 37.7503 36.7045 37.7083C38.2574 37.6662 38.8643 37.1615 39.2033 36.5595C39.5411 35.9561 39.4525 34.3864 39.4165 34.2321C39.3805 34.0777 39.3628 33.377 39.684 33.363C40.0052 33.349 40.3081 33.6853 40.8613 34.1759C41.4151 34.667 42.325 36.6989 42.7354 36.9094C43.1452 37.1198 43.9671 37.2882 45.2873 37.2882C46.6076 37.2882 49.463 37.218 50.0168 37.0777C50.5706 36.9374 51.7834 35.8018 52.016 35.073C52.2475 34.3443 51.5508 33.6151 50.8918 32.704C50.2327 31.7929 46.6973 28.9603 46.6259 28.8205L46.6286 28.8187ZM51.162 35.1678C51.1094 35.07 48.5758 32.6172 47.6831 31.7477C46.7903 30.8782 46.4337 30.5147 46.1656 30.6265C45.8987 30.7388 46.005 30.9628 46.149 31.0891C46.293 31.2154 50.6459 35.2954 50.5922 35.3655C50.539 35.4357 49.7725 35.5619 49.7005 35.4497C49.6286 35.3374 47.9871 33.4731 46.8983 32.4782C45.8101 31.4829 45.0963 31.0203 44.8991 31.0619C44.7042 31.1045 44.5967 31.3987 44.8288 31.539C45.0614 31.6793 46.4708 32.5343 47.3807 33.5577C48.2917 34.5806 49.2553 35.3655 49.1124 35.4637C48.9695 35.5619 48.1488 35.5339 48.1128 35.4918C48.0779 35.4506 46.1856 33.5713 45.3117 32.7864C44.4378 32.0016 44.2406 31.9463 43.9731 32.0305C43.7057 32.1147 44.2589 32.5071 44.6693 32.8434C45.0791 33.1793 47.2212 35.17 47.3463 35.2962C47.4715 35.4225 47.5424 35.6045 47.4001 35.6045C47.2577 35.6045 46.3993 35.6176 46.3102 35.5619C46.2216 35.5058 43.3296 32.2537 43.0444 32.212C42.7587 32.1695 42.5981 32.2953 42.6695 32.408C42.7415 32.5203 45.722 35.4357 45.5077 35.4773C45.2934 35.5198 44.8293 35.5058 44.6327 35.3795C44.4372 35.2533 42.6701 33.1653 41.5093 32.4361C40.3485 31.7069 39.6895 31.4978 39.1185 31.5109C38.5481 31.5258 38.2086 31.8902 38.2086 31.8902C38.2086 31.8902 36.6026 30.3906 36.3523 30.4608C36.102 30.5309 36.0665 30.6712 36.2271 30.8387C36.3878 31.0071 37.8863 32.1423 37.8863 32.2125C37.8863 32.2826 37.7612 32.9688 37.7435 33.025C37.7257 33.0811 35.6019 31.2307 35.459 31.2728C35.3161 31.3149 35.1733 31.6653 35.263 31.7771C35.3516 31.8898 37.9212 33.5573 37.9572 33.712C37.9927 33.8664 38.1178 34.931 37.9572 34.8477C37.7966 34.7644 35.1195 32.2256 34.9767 32.2541C34.8338 32.2826 34.5486 32.5904 34.6555 32.7167C34.7623 32.843 37.8858 35.2256 37.8675 35.3379C37.8509 35.4501 37.5823 35.6317 37.3691 35.576C37.1542 35.5207 34.3703 32.9557 34.1028 33.0399C33.8353 33.124 33.621 33.278 33.8353 33.4463C34.0496 33.6147 36.7616 35.6189 36.6724 35.7308C36.5838 35.8434 35.8334 35.8009 35.6911 35.7452C35.5487 35.6891 33.3358 33.4323 32.9608 33.5024C32.5859 33.5726 32.5327 33.8111 32.6574 33.9655C32.782 34.1198 35.1201 35.7176 34.9778 35.7878C34.8354 35.8579 34.1382 35.8448 33.9599 35.7746C33.7816 35.7044 31.8898 33.9944 31.6577 33.9659C31.4251 33.9378 31.2297 34.204 31.3188 34.3022C31.4074 34.4004 32.8717 35.5356 32.818 35.6198C32.7642 35.7031 30.7833 35.241 29.7842 34.596C28.7846 33.9514 26.3933 32.2129 24.8222 30.5445C23.25 28.8744 22.3401 28.0062 20.9478 25.8183C19.5556 23.6303 18.3599 21.2064 19.0023 20.618C19.2316 20.4075 19.7156 20.2957 20.3757 20.2957C21.0359 20.2957 23.4454 20.2396 23.5878 20.408C23.7318 20.5772 25.7121 24.0534 26.8186 25.343C27.9251 26.6325 28.9785 27.4314 29.674 27.6559C30.3702 27.8795 31.2983 27.669 31.655 26.9824C32.0122 26.2958 31.9939 25.2022 31.8693 24.2911C31.7447 23.3799 31.8516 21.8795 31.3515 21.2919C30.8509 20.7026 30.4045 20.2541 30.4582 20.1694C30.5119 20.0861 32.9924 19.9458 34.6881 19.8897C36.3839 19.8336 37.6687 19.7213 37.7041 20.4365C37.7396 21.1516 37.7927 22.1746 37.7041 23.7031C37.6155 25.2316 37.7224 25.581 38.3465 25.8191C38.9723 26.0581 39.8462 25.7919 41.2562 24.7826C42.6662 23.7732 44.1116 22.2175 45.022 21.11C45.9325 20.0024 46.7001 19.2171 46.8247 19.161C46.9493 19.1048 49.9115 18.9505 50.1973 19.1189C50.4831 19.2864 51.3752 20.2115 51.5358 20.2953C51.6964 20.3795 51.6964 20.5198 51.6787 20.5614C51.661 20.604 51.4461 21.0525 51.3038 20.9683C51.1615 20.8842 50.0716 19.987 49.8584 20.0291C49.6435 20.0712 49.5721 20.2115 49.7509 20.3931C49.9293 20.5759 51.0718 21.2766 51.054 21.4029C51.0363 21.5291 50.6608 22.0049 50.554 21.9488C50.4471 21.8926 49.1805 20.6171 49.0199 20.6728C48.8593 20.7298 48.6267 20.9815 48.7873 21.1218C48.9479 21.2621 50.1441 22.2289 50.1441 22.3276C50.1441 22.4249 49.7509 22.9436 49.6623 22.8875C49.5737 22.8314 48.2518 21.6962 48.0729 21.7799C47.8957 21.8646 47.7163 21.9628 47.8774 22.1167C48.0386 22.2706 49.4308 23.1677 49.3594 23.3216C49.2874 23.4759 48.8942 24.0784 48.7702 24.0223C48.645 23.9662 47.1641 22.5359 47.0035 22.6205C46.8429 22.7051 46.6463 22.831 46.7709 22.9564C46.8967 23.0826 48.3604 24.3582 48.3604 24.4283C48.3604 24.4985 48.0209 24.8909 47.9672 24.8909C47.9134 24.8909 46.5395 23.6149 46.4331 23.6434C46.3257 23.6715 46.0222 23.8815 46.0936 23.9798C46.1656 24.078 47.5745 25.1711 47.3962 25.3815C47.2179 25.592 47.0213 25.774 46.9144 25.7455C46.8075 25.7178 45.3438 24.3582 45.1832 24.3862C45.0226 24.4143 44.7368 24.5265 44.826 24.6945C44.9146 24.8628 46.504 26.0261 46.432 26.1383C46.36 26.2506 45.9148 26.5308 45.7896 26.4606C45.665 26.3905 44.3979 25.2417 44.1659 25.2833C43.9338 25.325 43.8087 25.3535 43.8447 25.4938C43.8801 25.6341 45.2901 26.6571 45.1832 26.7553C45.0763 26.8535 44.3259 27.1617 44.0407 27.3867C43.755 27.6103 43.7732 27.7927 43.987 27.9049C44.2013 28.0167 47.0921 29.8671 48.6987 31.507C50.3047 33.1469 50.7334 33.8339 50.9654 34.3105C51.1953 34.7885 51.213 35.2642 51.1593 35.1656L51.162 35.1678ZM21.912 21.0959C21.7159 20.9837 19.895 20.9837 19.8059 21.1661C19.7162 21.3485 20.4372 23.1195 20.662 23.2124C20.9655 23.3387 21.1261 23.1844 21.1976 23.0441C21.269 22.9037 20.7335 21.7129 20.7512 21.5866C20.7689 21.4603 21.7325 21.5296 21.9114 21.5164C22.0903 21.5033 22.108 21.2077 21.9114 21.0955L21.912 21.0959ZM33.8336 20.5632C33.7794 20.6614 33.8502 20.9416 34.0651 21.0117C34.28 21.0819 35.7963 21.124 35.9215 21.1521C36.0466 21.1801 36.0283 21.8251 36.0821 22.0492C36.1358 22.2737 36.5639 22.1614 36.7067 22.0492C36.8496 21.9369 36.7787 20.7175 36.7067 20.5772C36.6347 20.4369 33.8846 20.4694 33.8325 20.5632H33.8336Z" fill="#FFD600"/>
</svg>
