<svg width="21" height="20" viewBox="0 0 21 20" fill="none" xmlns="http://www.w3.org/2000/svg">
<path d="M10.3125 19.9585C4.61794 19.9585 0 15.4898 0 9.97925C0 4.46871 4.61794 0 10.3125 0C16.0071 0 20.625 4.46871 20.625 9.97925C20.625 15.4898 16.0071 19.9585 10.3125 19.9585Z" fill="url(#paint0_linear_196_94)"/>
<path d="M10.3126 4.39468C12.1916 4.39468 12.4143 4.40067 13.1568 4.4346C13.8436 4.46453 14.2169 4.5763 14.4644 4.67011C14.7924 4.79385 15.0275 4.94154 15.2729 5.17905C15.5184 5.41655 15.671 5.64408 15.7989 5.96142C15.8958 6.20092 16.0093 6.56217 16.0423 7.22678C16.0753 7.94529 16.0835 8.16084 16.0835 9.97905C16.0835 11.7973 16.0773 12.0128 16.0423 12.7313C16.0113 13.3959 15.8958 13.7572 15.7989 13.9967C15.671 14.314 15.5184 14.5416 15.2729 14.7791C15.0275 15.0166 14.7924 15.1643 14.4644 15.288C14.2169 15.3818 13.8436 15.4916 13.1568 15.5235C12.4143 15.5554 12.1916 15.5634 10.3126 15.5634C8.43368 15.5634 8.21093 15.5574 7.46843 15.5235C6.78162 15.4936 6.40831 15.3818 6.16081 15.288C5.83287 15.1643 5.59774 15.0166 5.3523 14.7791C5.10687 14.5416 4.95424 14.314 4.82637 13.9967C4.72943 13.7572 4.61599 13.3959 4.58299 12.7313C4.54999 12.0128 4.54174 11.7973 4.54174 9.97905C4.54174 8.16084 4.54793 7.94529 4.58299 7.22678C4.61393 6.56217 4.72943 6.20092 4.82637 5.96142C4.95424 5.64408 5.10687 5.41655 5.3523 5.17905C5.59774 4.94154 5.83287 4.79385 6.16081 4.67011C6.40831 4.5763 6.78162 4.46653 7.46843 4.4346C8.21093 4.40067 8.43368 4.39468 10.3126 4.39468ZM10.3126 3.16724C8.40068 3.16724 8.16143 3.17522 7.41068 3.20915C6.66199 3.24308 6.15049 3.35684 5.70087 3.52649C5.23887 3.69813 4.84493 3.93164 4.45512 4.31086C4.06324 4.69007 3.82399 5.06928 3.64249 5.51834C3.46924 5.95144 3.34962 6.44641 3.31455 7.1729C3.27949 7.89938 3.27124 8.1309 3.27124 9.98105C3.27124 11.8312 3.27949 12.0627 3.31455 12.7892C3.34962 13.5137 3.46718 14.0087 3.64249 14.4438C3.82193 14.8888 4.06324 15.27 4.45512 15.6472C4.84699 16.0265 5.23887 16.258 5.70293 16.4336C6.15049 16.6013 6.66199 16.717 7.41274 16.751C8.16349 16.7849 8.40275 16.7929 10.3147 16.7929C12.2266 16.7929 12.4659 16.7849 13.2166 16.751C13.9653 16.717 14.4768 16.6033 14.9264 16.4336C15.3864 16.26 15.7803 16.0265 16.1701 15.6472C16.562 15.268 16.8013 14.8888 16.9828 14.4398C17.156 14.0067 17.2756 13.5117 17.3107 12.7852C17.3458 12.0587 17.354 11.8272 17.354 9.97706C17.354 8.12691 17.3458 7.89539 17.3107 7.1689C17.2756 6.44441 17.1581 5.94944 16.9828 5.51435C16.8033 5.06928 16.562 4.68807 16.1701 4.31086C15.7783 3.93164 15.3864 3.70013 14.9223 3.52449C14.4748 3.35684 13.9632 3.24108 13.2125 3.20715C12.4638 3.17522 12.2246 3.16724 10.3126 3.16724Z" fill="white"/>
<path d="M10.3126 6.48071C8.31607 6.48071 6.69702 8.04737 6.69702 9.97924C6.69702 11.9111 8.31607 13.4778 10.3126 13.4778C12.309 13.4778 13.9281 11.9111 13.9281 9.97924C13.9281 8.04737 12.309 6.48071 10.3126 6.48071ZM10.3126 12.2504C9.01732 12.2504 7.96545 11.2346 7.96545 9.97924C7.96545 8.72392 9.01732 7.70809 10.3126 7.70809C11.6078 7.70809 12.6597 8.72392 12.6597 9.97924C12.6597 11.2346 11.6078 12.2504 10.3126 12.2504Z" fill="white"/>
<path d="M14.0704 7.16125C14.5374 7.16125 14.916 6.79477 14.916 6.34271C14.916 5.89064 14.5374 5.52417 14.0704 5.52417C13.6033 5.52417 13.2247 5.89064 13.2247 6.34271C13.2247 6.79477 13.6033 7.16125 14.0704 7.16125Z" fill="white"/>
<defs>
<linearGradient id="paint0_linear_196_94" x1="3.02046" y1="17.0356" x2="17.1256" y2="2.45943" gradientUnits="userSpaceOnUse">
<stop stop-color="#FFD521"/>
<stop offset="0.0551048" stop-color="#FFD020"/>
<stop offset="0.1241" stop-color="#FEC01E"/>
<stop offset="0.2004" stop-color="#FCA71B"/>
<stop offset="0.2821" stop-color="#FA8316"/>
<stop offset="0.3681" stop-color="#F85510"/>
<stop offset="0.4563" stop-color="#F51E09"/>
<stop offset="0.5" stop-color="#F30005"/>
<stop offset="0.5035" stop-color="#F20007"/>
<stop offset="0.5966" stop-color="#E1003B"/>
<stop offset="0.6879" stop-color="#D30067"/>
<stop offset="0.7757" stop-color="#C70088"/>
<stop offset="0.8589" stop-color="#BF00A0"/>
<stop offset="0.9357" stop-color="#BB00AF"/>
<stop offset="1" stop-color="#B900B4"/>
</linearGradient>
</defs>
</svg>
