<svg width="28" height="14" viewBox="0 0 28 14" fill="none" xmlns="http://www.w3.org/2000/svg">
<path d="M5.23149 0.41525C2.42173 0.555647 1.00982 0.916097 0.590924 3.53105C0.436769 4.49323 0.358644 5.79248 0.357178 7.09543V7.17001C0.358644 8.47141 0.43635 9.77005 0.590924 10.7344C1.00982 13.3497 2.42173 13.7101 5.23149 13.8502C9.22906 14.0501 18.1475 14.0498 22.1421 13.8502C24.9521 13.7101 26.3638 13.3497 26.7829 10.7344C27.0939 8.79296 27.0947 5.4794 26.7829 3.53105C26.3638 0.915945 24.9521 0.555647 22.1421 0.41525C20.1444 0.31545 16.9137 0.265625 13.6845 0.265625C10.4566 0.265472 7.22987 0.31545 5.23149 0.41525Z" fill="url(#paint0_linear_196_89)"/>
<path d="M17.3887 7.13281L10.1338 10.8147V3.45093L17.3887 7.13281Z" fill="white"/>
<defs>
<linearGradient id="paint0_linear_196_89" x1="27.0157" y1="20.9222" x2="27.0157" y2="7.18789" gradientUnits="userSpaceOnUse">
<stop stop-color="#FF0000"/>
<stop offset="1" stop-color="#FF6B00"/>
</linearGradient>
</defs>
</svg>
