<svg width="8" height="12" viewBox="0 0 8 12" fill="none" xmlns="http://www.w3.org/2000/svg">
<g clip-path="url(#clip0_232_73)">
<path d="M7.02359 0H1.20541C0.603957 0 0.114502 0.475059 0.114502 1.05882V10.9412C0.114502 11.5249 0.603957 12 1.20541 12H7.02359C7.62505 12 8.1145 11.5249 8.1145 10.9412V1.05882C8.1145 0.475059 7.62505 0 7.02359 0ZM1.20541 0.705882H7.02359C7.22432 0.705882 7.38723 0.864 7.38723 1.05882V2.11765H0.841775V1.05882C0.841775 0.864 1.00468 0.705882 1.20541 0.705882ZM7.38723 2.82353V8.47059H0.841775V2.82353H7.38723ZM7.02359 11.2941H1.20541C1.00468 11.2941 0.841775 11.136 0.841775 10.9412V9.17647H7.38723V10.9412C7.38723 11.136 7.22432 11.2941 7.02359 11.2941ZM4.47814 10.2353C4.47814 10.4301 4.31523 10.5882 4.1145 10.5882C3.91378 10.5882 3.75087 10.4301 3.75087 10.2353C3.75087 10.0405 3.91378 9.88235 4.1145 9.88235C4.31523 9.88235 4.47814 10.0405 4.47814 10.2353Z" fill="#FF6B00"/>
</g>
<defs>
<clipPath id="clip0_232_73">
<rect width="8" height="12" fill="white"/>
</clipPath>
</defs>
</svg>
