<svg width="24" height="11" viewBox="0 0 24 11" fill="none" xmlns="http://www.w3.org/2000/svg">
<path d="M18.8957 6.01562C18.8486 5.94077 19.0125 5.91831 19.4332 5.64181C19.854 5.36508 21.2213 4.2509 22.2967 3.38327C23.3722 2.51588 23.2318 1.9699 23.1734 1.44638C23.115 0.92286 22.6584 0.668585 22.1796 0.556535C21.7008 0.444252 19.4677 0.504136 19.0821 0.519107C18.6962 0.534079 18.5091 0.661099 18.2987 0.870695C18.0883 1.07959 16.7558 2.38886 16.2299 2.79215C15.704 3.1959 14.6285 3.84668 14.535 3.82422C14.4414 3.80176 14.465 2.10418 14.3826 1.71539C14.301 1.32708 13.144 0.95982 12.3961 0.930346C11.6482 0.900871 8.50436 0.982745 8.12969 1.03514C7.75502 1.08754 7.5102 1.31936 7.55662 1.40895C7.60377 1.49902 8.24648 1.90253 8.42203 2.05973C8.59757 2.21693 8.79561 3.66749 8.78473 4.27335C8.77384 4.87922 8.39845 5.13326 8.26969 5.1108C8.1413 5.08858 7.54502 4.9391 6.82034 4.40809C6.09567 3.87709 4.20165 1.39515 4.1204 1.31258C4.0388 1.23024 3.68879 1.20029 2.62463 1.17807C1.56047 1.15585 0.489052 1.23608 0.310604 1.43258C-0.22728 2.02347 0.0414803 3.22748 0.310604 3.77323C0.579727 4.31897 1.09331 5.21654 2.13353 6.24861C3.17376 7.28068 4.7399 8.36492 6.248 9.30717C7.75611 10.2494 8.88955 10.5563 9.54422 10.6908C10.1989 10.8253 11.3795 10.7807 12.3961 10.7582C13.4131 10.7357 13.8107 10.4665 14.0326 10.1453C14.2539 9.82344 14.1958 8.98599 14.1723 8.90365C14.1487 8.82131 14.1371 8.4475 14.3475 8.44001C14.5578 8.43252 14.7562 8.61194 15.1186 8.8737C15.4813 9.1357 16.0772 10.2197 16.3459 10.332C16.6143 10.4443 17.1526 10.5341 18.0173 10.5341C18.8819 10.5341 20.752 10.4967 21.1147 10.4218C21.4774 10.347 22.2717 9.7411 22.4241 9.35231C22.5757 8.96353 22.1194 8.57452 21.6878 8.08842C21.2562 7.60233 18.9407 6.09118 18.8939 6.01656L18.8957 6.01562ZM21.8648 9.40284C21.8303 9.35068 20.171 8.04211 19.5863 7.57823C19.0016 7.11436 18.768 6.92044 18.5925 6.98009C18.4177 7.03997 18.4873 7.15951 18.5816 7.22688C18.6759 7.29425 21.5267 9.47091 21.4916 9.50834C21.4567 9.54577 20.9548 9.61314 20.9076 9.55325C20.8605 9.49337 19.7854 8.49872 19.0723 7.96795C18.3596 7.43694 17.8921 7.19015 17.763 7.21238C17.6353 7.23507 17.565 7.39203 17.7169 7.46689C17.8693 7.54174 18.7923 7.99789 19.3883 8.54387C19.9849 9.08962 20.616 9.50834 20.5224 9.56074C20.4288 9.61314 19.8913 9.59817 19.8677 9.57571C19.8449 9.55372 18.6056 8.55112 18.0332 8.1324C17.4609 7.71368 17.3317 7.6842 17.1566 7.72912C16.9814 7.77403 17.3437 7.98339 17.6125 8.16281C17.8809 8.342 19.2838 9.40401 19.3658 9.47138C19.4477 9.53875 19.4942 9.63583 19.401 9.63583C19.3077 9.63583 18.7456 9.64285 18.6872 9.61314C18.6291 9.5832 16.7351 7.84818 16.5483 7.82596C16.3612 7.80327 16.256 7.8704 16.3028 7.93052C16.3499 7.99041 18.302 9.54577 18.1616 9.56799C18.0212 9.59068 17.7173 9.5832 17.5885 9.51583C17.4605 9.44846 16.3031 8.33451 15.5429 7.94549C14.7827 7.55648 14.3511 7.4449 13.9771 7.45191C13.6036 7.45987 13.3812 7.65426 13.3812 7.65426C13.3812 7.65426 12.3294 6.85424 12.1655 6.89167C12.0015 6.92909 11.9783 7.00395 12.0835 7.09331C12.1887 7.18314 13.1701 7.78876 13.1701 7.82619C13.1701 7.86362 13.0882 8.22971 13.0766 8.25965C13.0649 8.2896 11.674 7.30244 11.5804 7.32489C11.4868 7.34735 11.3933 7.53426 11.452 7.59391C11.5101 7.65402 13.193 8.54364 13.2166 8.62621C13.2398 8.70856 13.3217 9.27652 13.2166 9.23208C13.1114 9.18763 11.3581 7.83321 11.2645 7.84842C11.1709 7.86362 10.9841 8.02784 11.0541 8.09521C11.1241 8.16258 13.1698 9.43372 13.1578 9.4936C13.1469 9.55349 12.971 9.65033 12.8314 9.62062C12.6906 9.59115 10.8673 8.22269 10.6922 8.26761C10.517 8.31252 10.3766 8.39463 10.517 8.48446C10.6573 8.57428 12.4335 9.64355 12.3751 9.7032C12.3171 9.76332 11.8256 9.74063 11.7324 9.71092C11.6392 9.68098 10.1898 8.47697 9.94428 8.5144C9.69873 8.55183 9.66391 8.67908 9.74552 8.76142C9.82713 8.84376 11.3584 9.69618 11.2652 9.73361C11.172 9.77104 10.7154 9.76402 10.5986 9.72659C10.4818 9.68916 9.24282 8.77686 9.09084 8.76165C8.93851 8.74668 8.81048 8.88868 8.86887 8.94108C8.9269 8.99347 9.88588 9.5991 9.8507 9.64402C9.81552 9.68846 8.51814 9.44191 7.86383 9.0978C7.20916 8.75394 5.64302 7.82643 4.61404 6.93635C3.58433 6.04533 2.98842 5.58216 2.07659 4.41488C1.16476 3.2476 0.381693 1.95447 0.802425 1.64054C0.952583 1.52826 1.26958 1.46861 1.70192 1.46861C2.13426 1.46861 3.71237 1.43866 3.80558 1.52849C3.89988 1.61878 5.1969 3.47333 5.92157 4.1613C6.64625 4.84928 7.3361 5.27549 7.79165 5.39525C8.24757 5.51456 8.85545 5.40227 9.08903 5.03595C9.32297 4.66962 9.311 4.08622 9.2294 3.60012C9.14779 3.11403 9.21779 2.31354 8.89027 2.00008C8.56239 1.68569 8.27005 1.44638 8.30524 1.40124C8.34042 1.35679 9.96495 1.28193 11.0755 1.25199C12.1861 1.22205 13.0276 1.16216 13.0508 1.54369C13.074 1.92522 13.1088 2.47097 13.0508 3.28643C12.9928 4.10189 13.0628 4.28833 13.4715 4.41535C13.8814 4.54283 14.4537 4.40084 15.3772 3.86235C16.3006 3.32386 17.2472 2.49389 17.8435 1.903C18.4398 1.31211 18.9425 0.893152 19.0241 0.86321C19.1057 0.833267 21.0458 0.750926 21.233 0.840753C21.4201 0.930112 22.0044 1.42369 22.1096 1.46837C22.2148 1.51328 22.2148 1.58814 22.2032 1.61036C22.1916 1.63305 22.0508 1.87236 21.9576 1.82744C21.8644 1.78253 21.1506 1.30392 21.011 1.32638C20.8703 1.34884 20.8235 1.42369 20.9406 1.52054C21.0574 1.61808 21.8057 1.99189 21.794 2.05926C21.7824 2.12663 21.5365 2.38044 21.4665 2.3505C21.3965 2.32056 20.567 1.64007 20.4618 1.66978C20.3567 1.70019 20.2043 1.83446 20.3095 1.90932C20.4147 1.98417 21.1981 2.49998 21.1981 2.55261C21.1981 2.60454 20.9406 2.88127 20.8826 2.85133C20.8246 2.82139 19.9588 2.21576 19.8416 2.26044C19.7256 2.30559 19.6081 2.35798 19.7136 2.44009C19.8191 2.5222 20.731 3.00081 20.6842 3.08292C20.637 3.16526 20.3795 3.48667 20.2983 3.45673C20.2163 3.42678 19.2464 2.66372 19.1413 2.70887C19.0361 2.75402 18.9073 2.82115 18.9889 2.88806C19.0713 2.95543 20.0299 3.63591 20.0299 3.67334C20.0299 3.71077 19.8075 3.92013 19.7724 3.92013C19.7372 3.92013 18.8373 3.23941 18.7677 3.25462C18.6973 3.26959 18.4986 3.38164 18.5453 3.43404C18.5925 3.48643 19.5152 4.06961 19.3984 4.18189C19.2816 4.29417 19.1529 4.39125 19.0829 4.37605C19.0129 4.36131 18.0542 3.63591 17.9491 3.65088C17.8439 3.66585 17.6567 3.72574 17.7151 3.81533C17.7732 3.90516 18.8141 4.52576 18.767 4.58564C18.7198 4.64553 18.4282 4.79501 18.3462 4.75758C18.2646 4.72015 17.4348 4.10727 17.2828 4.12949C17.1308 4.15171 17.0488 4.16692 17.0724 4.24178C17.0956 4.31663 18.0191 4.86238 17.9491 4.91477C17.8791 4.96717 17.3876 5.13162 17.2008 5.25163C17.0137 5.37093 17.0256 5.46824 17.1656 5.52812C17.306 5.58777 19.1993 6.57493 20.2515 7.44981C21.3033 8.32469 21.584 8.69124 21.736 8.94552C21.8865 9.2005 21.8981 9.4543 21.863 9.40167L21.8648 9.40284ZM2.70805 1.89552C2.57965 1.83563 1.3871 1.83563 1.3287 1.93294C1.26995 2.03026 1.74218 2.97508 1.88944 3.02467C2.0882 3.09204 2.19338 3.0097 2.24017 2.93484C2.28696 2.85999 1.93622 2.22465 1.94783 2.15728C1.95944 2.08991 2.59054 2.12687 2.70769 2.11985C2.82484 2.11283 2.83645 1.95517 2.70769 1.89528L2.70805 1.89552ZM10.5159 1.6113C10.4803 1.6637 10.5268 1.81318 10.6675 1.8506C10.8082 1.88803 11.8013 1.91049 11.8833 1.92546C11.9652 1.94043 11.9533 2.28453 11.9885 2.40407C12.0236 2.52384 12.304 2.46395 12.3976 2.40407C12.4912 2.34418 12.4447 1.69364 12.3976 1.61878C12.3504 1.54393 10.5493 1.56124 10.5152 1.6113H10.5159Z" fill="#FFD600"/>
</svg>
