<svg width="21" height="30" viewBox="0 0 21 30" fill="none" xmlns="http://www.w3.org/2000/svg">
<g clip-path="url(#clip0_50_10)">
<path d="M17.9101 0H3.07372C1.54001 0 0.291897 1.18765 0.291897 2.64706V27.3529C0.291897 28.8124 1.54001 30 3.07372 30H17.9101C19.4438 30 20.6919 28.8124 20.6919 27.3529V2.64706C20.6919 1.18765 19.4438 0 17.9101 0ZM3.07372 1.76471H17.9101C18.4219 1.76471 18.8374 2.16 18.8374 2.64706V5.29412H2.14644V2.64706C2.14644 2.16 2.56186 1.76471 3.07372 1.76471ZM18.8374 7.05882V21.1765H2.14644V7.05882H18.8374ZM17.9101 28.2353H3.07372C2.56186 28.2353 2.14644 27.84 2.14644 27.3529V22.9412H18.8374V27.3529C18.8374 27.84 18.4219 28.2353 17.9101 28.2353ZM11.4192 25.5882C11.4192 26.0753 11.0038 26.4706 10.4919 26.4706C9.98005 26.4706 9.56463 26.0753 9.56463 25.5882C9.56463 25.1012 9.98005 24.7059 10.4919 24.7059C11.0038 24.7059 11.4192 25.1012 11.4192 25.5882Z" fill="#FF6B00"/>
</g>
<defs>
<clipPath id="clip0_50_10">
<rect width="20.4" height="30" fill="white"/>
</clipPath>
</defs>
</svg>
