<svg width="31" height="17" viewBox="0 0 31 17" fill="none" xmlns="http://www.w3.org/2000/svg">
<path d="M25.1943 9.02853C25.1314 8.90622 25.35 8.86953 25.911 8.41777C26.472 7.96563 28.2951 6.14521 29.729 4.72763C31.1629 3.31043 30.9757 2.41838 30.8979 1.56301C30.82 0.707649 30.2111 0.292198 29.5728 0.109124C28.9344 -0.0743317 25.9569 0.0235116 25.4429 0.0479724C24.9283 0.0724332 24.6788 0.279967 24.3983 0.622419C24.1178 0.963723 22.341 3.1029 21.6398 3.76181C20.9386 4.42149 19.5047 5.48477 19.38 5.44808C19.2552 5.41138 19.2866 2.63776 19.1768 2.00254C19.068 1.36809 17.5254 0.768037 16.5282 0.71988C15.531 0.671723 11.3391 0.805492 10.8396 0.891105C10.34 0.976718 10.0136 1.35548 10.0755 1.50186C10.1384 1.64901 10.9953 2.3083 11.2294 2.56514C11.4634 2.82198 11.7275 5.192 11.713 6.1819C11.6985 7.1718 11.1979 7.58687 11.0263 7.55017C10.8551 7.51387 10.06 7.26964 9.09379 6.40205C8.12756 5.53445 5.6022 1.47931 5.49387 1.34439C5.38506 1.20986 4.91839 1.16094 3.49951 1.12463C2.08062 1.08832 0.652069 1.21942 0.414138 1.54046C-0.303041 2.5059 0.055307 4.47308 0.414138 5.36476C0.772969 6.25643 1.45775 7.72293 2.84471 9.4092C4.23168 11.0955 6.31986 12.867 8.33067 14.4065C10.3415 15.946 11.8527 16.4474 12.7256 16.6672C13.5985 16.8869 15.1726 16.8139 16.5282 16.7772C17.8842 16.7406 18.4142 16.3006 18.7102 15.7759C19.0052 15.25 18.9278 13.8817 18.8964 13.7472C18.8649 13.6126 18.8495 13.0019 19.1299 12.9896C19.4104 12.9774 19.675 13.2706 20.1581 13.6982C20.6417 14.1263 21.4362 15.8974 21.7946 16.0809C22.1524 16.2643 22.8701 16.4111 24.023 16.4111C25.1759 16.4111 27.6693 16.3499 28.1529 16.2276C28.6365 16.1053 29.6956 15.1154 29.8987 14.4802C30.1009 13.845 29.4925 13.2094 28.917 12.4152C28.3416 11.621 25.2543 9.15197 25.1919 9.03005L25.1943 9.02853ZM29.153 14.5628C29.1071 14.4776 26.8946 12.3395 26.1151 11.5816C25.3355 10.8237 25.0241 10.5069 24.79 10.6043C24.5569 10.7022 24.6498 10.8975 24.7755 11.0076C24.9012 11.1176 28.7023 14.674 28.6554 14.7352C28.609 14.7963 27.9397 14.9064 27.8768 14.8085C27.8139 14.7107 26.3806 13.0856 25.4298 12.2184C24.4795 11.3508 23.8562 10.9476 23.684 10.9839C23.5138 11.0209 23.42 11.2774 23.6226 11.3997C23.8257 11.522 25.0565 12.2673 25.851 13.1593C26.6465 14.051 27.488 14.7352 27.3632 14.8208C27.2385 14.9064 26.5218 14.8819 26.4903 14.8452C26.4599 14.8093 24.8074 13.1712 24.0443 12.4871C23.2812 11.8029 23.109 11.7548 22.8754 11.8281C22.6418 11.9015 23.125 12.2436 23.4833 12.5367C23.8412 12.8295 25.7117 14.5647 25.821 14.6748C25.9303 14.7848 25.9922 14.9435 25.8679 14.9435C25.7437 14.9435 24.9941 14.9549 24.9162 14.9064C24.8388 14.8575 22.3135 12.0227 22.0644 11.9864C21.8149 11.9493 21.6746 12.059 21.737 12.1572C21.7999 12.2551 24.4026 14.7963 24.2155 14.8326C24.0283 14.8697 23.6231 14.8575 23.4514 14.7474C23.2807 14.6373 21.7375 12.8173 20.7239 12.1817C19.7103 11.5461 19.1348 11.3638 18.6362 11.3752C18.1381 11.3882 17.8416 11.7058 17.8416 11.7058C17.8416 11.7058 16.4392 10.3987 16.2206 10.4599C16.002 10.521 15.9711 10.6433 16.1113 10.7893C16.2516 10.9361 17.5602 11.9256 17.5602 11.9868C17.5602 12.0479 17.4509 12.646 17.4354 12.695C17.4199 12.7439 15.5653 11.131 15.4406 11.1677C15.3158 11.2044 15.191 11.5098 15.2694 11.6072C15.3467 11.7055 17.5906 13.159 17.6221 13.2939C17.653 13.4284 17.7623 14.3564 17.6221 14.2838C17.4818 14.2112 15.1441 11.9982 15.0193 12.0231C14.8946 12.0479 14.6455 12.3162 14.7389 12.4263C14.8322 12.5364 17.5597 14.6132 17.5437 14.7111C17.5292 14.8089 17.2947 14.9671 17.1085 14.9186C16.9209 14.8705 14.4898 12.6346 14.2562 12.708C14.0226 12.7813 13.8355 12.9155 14.0226 13.0623C14.2098 13.209 16.578 14.9561 16.5001 15.0535C16.4227 15.1518 15.7675 15.1147 15.6432 15.0661C15.5189 15.0172 13.5864 13.05 13.259 13.1112C12.9316 13.1723 12.8852 13.3803 12.994 13.5148C13.1028 13.6493 15.1446 15.0421 15.0203 15.1032C14.896 15.1644 14.2872 15.1529 14.1315 15.0917C13.9757 15.0306 12.3238 13.54 12.1211 13.5152C11.918 13.4907 11.7473 13.7227 11.8252 13.8083C11.9025 13.8939 13.1812 14.8834 13.1343 14.9568C13.0874 15.0294 11.3575 14.6266 10.4851 14.0644C9.61221 13.5026 7.52402 11.9871 6.15205 10.5329C4.77911 9.07706 3.98456 8.32031 2.76879 6.41313C1.55302 4.50595 0.508924 2.39315 1.0699 1.88024C1.27011 1.69678 1.69278 1.59932 2.26923 1.59932C2.84568 1.59932 4.94982 1.5504 5.07411 1.69717C5.19984 1.84469 6.9292 4.87478 7.89543 5.99883C8.86166 7.12288 9.78147 7.81924 10.3889 8.01493C10.9968 8.20985 11.8073 8.0264 12.1187 7.42787C12.4306 6.82935 12.4147 5.87614 12.3059 5.08193C12.1971 4.28772 12.2904 2.97983 11.8537 2.46768C11.4165 1.954 11.0267 1.56301 11.0736 1.48925C11.1206 1.41663 13.2866 1.29433 14.7674 1.2454C16.2482 1.19648 17.3701 1.09864 17.4011 1.72201C17.432 2.34538 17.4784 3.23705 17.4011 4.5694C17.3237 5.90175 17.417 6.20636 17.962 6.41389C18.5085 6.62219 19.2716 6.3902 20.5029 5.51037C21.7341 4.63055 22.9963 3.2745 23.7914 2.30907C24.5864 1.34363 25.2567 0.65911 25.3655 0.610188C25.4743 0.561267 28.0611 0.426733 28.3106 0.573497C28.5601 0.719498 29.3392 1.52594 29.4795 1.59894C29.6197 1.67232 29.6197 1.79463 29.6042 1.83094C29.5888 1.86801 29.4011 2.259 29.2768 2.18562C29.1525 2.11223 28.2008 1.33025 28.0146 1.36694C27.827 1.40364 27.7646 1.52594 27.9208 1.68417C28.0765 1.84355 29.0742 2.4543 29.0587 2.56438C29.0433 2.67445 28.7154 3.08914 28.622 3.04022C28.5287 2.99129 27.4227 1.87947 27.2825 1.92801C27.1422 1.9777 26.9391 2.19708 27.0794 2.31939C27.2196 2.44169 28.2642 3.28444 28.2642 3.37044C28.2642 3.45529 27.9208 3.90743 27.8434 3.85851C27.7661 3.80958 26.6117 2.82007 26.4555 2.89307C26.3008 2.96683 26.1441 3.05245 26.2848 3.1866C26.4255 3.32075 27.6413 4.10273 27.5789 4.23688C27.516 4.37142 27.1727 4.89656 27.0644 4.84764C26.9551 4.79872 25.6619 3.55198 25.5217 3.62575C25.3814 3.69951 25.2098 3.8092 25.3186 3.91851C25.4283 4.02859 26.7065 5.14041 26.7065 5.20156C26.7065 5.26271 26.4101 5.60478 26.3631 5.60478C26.3162 5.60478 25.1164 4.49258 25.0236 4.51742C24.9298 4.54188 24.6647 4.72495 24.7271 4.81057C24.79 4.89618 26.0203 5.849 25.8646 6.03246C25.7088 6.21592 25.5372 6.37453 25.4438 6.34969C25.3505 6.32561 24.0723 5.1404 23.9321 5.16487C23.7918 5.18933 23.5423 5.28717 23.6202 5.43355C23.6975 5.58032 25.0855 6.59429 25.0226 6.69214C24.9597 6.78998 24.5709 7.03421 24.4616 6.97305C24.3528 6.9119 23.2463 5.91054 23.0437 5.94685C22.8411 5.98316 22.7318 6.008 22.7632 6.1303C22.7942 6.25261 24.0254 7.14428 23.9321 7.22989C23.8388 7.3155 23.1835 7.58419 22.9344 7.78026C22.6849 7.97518 22.7008 8.13418 22.8875 8.23202C23.0747 8.32948 25.5991 9.94237 27.002 11.3718C28.4044 12.8012 28.7787 13.4001 28.9814 13.8156C29.182 14.2322 29.1975 14.6469 29.1506 14.5609L29.153 14.5628ZM3.61073 2.29684C3.43954 2.19899 1.84946 2.19899 1.7716 2.35799C1.69326 2.51698 2.32291 4.06069 2.51925 4.14172C2.78426 4.25179 2.92451 4.11726 2.98689 3.99495C3.04927 3.87265 2.58163 2.83459 2.59711 2.72452C2.61258 2.61444 3.45405 2.67483 3.61025 2.66337C3.76645 2.6519 3.78193 2.3943 3.61025 2.29645L3.61073 2.29684ZM14.0212 1.83246C13.9738 1.91808 14.0357 2.1623 14.2233 2.22345C14.411 2.28461 15.7351 2.3213 15.8444 2.34576C15.9537 2.37022 15.9377 2.93244 15.9846 3.12774C16.0315 3.32343 16.4053 3.22558 16.5301 3.12774C16.6549 3.0299 16.593 1.967 16.5301 1.84469C16.4672 1.72239 14.0657 1.75067 14.0202 1.83246H14.0212Z" fill="#FFD600"/>
</svg>
