<svg width="37" height="20" viewBox="0 0 37 20" fill="none" xmlns="http://www.w3.org/2000/svg">
<path d="M6.9754 0.21514C3.22906 0.417012 1.34651 0.935291 0.78798 4.69524C0.58244 6.07873 0.478273 7.94687 0.476318 9.82034V9.92756C0.478273 11.7988 0.581881 13.6661 0.78798 15.0527C1.34651 18.8131 3.22906 19.3313 6.9754 19.5328C12.3055 19.8202 24.1967 19.8197 29.5228 19.5328C33.2695 19.3313 35.1518 18.8131 35.7106 15.0527C36.1253 12.2611 36.1264 7.4967 35.7106 4.69524C35.1518 0.935072 33.2695 0.417012 29.5228 0.21514C26.8593 0.071641 22.5517 5.03873e-07 18.2461 5.03873e-07C13.9423 -0.000219555 9.6399 0.071641 6.9754 0.21514Z" fill="url(#paint0_linear_141_7)"/>
<path d="M23.1848 9.87409L13.5118 15.1681V4.58008L23.1848 9.87409Z" fill="white"/>
<defs>
<linearGradient id="paint0_linear_141_7" x1="36.021" y1="29.7014" x2="36.021" y2="9.95328" gradientUnits="userSpaceOnUse">
<stop stop-color="#FF0000"/>
<stop offset="1" stop-color="#FF6B00"/>
</linearGradient>
</defs>
</svg>
